<?xml version="1.0" standalone="no"?><!DOCTYPE svg PUBLIC "-//W3C//DTD SVG 1.1//EN" "http://www.w3.org/Graphics/SVG/1.1/DTD/svg11.dtd"><svg class="icon" height="512" viewBox="0 0 1024 1024" version="1.1" xmlns="http://www.w3.org/2000/svg"><path d="M708 179.264h65.088c32.128 0 40.992 11.024 40.992 43.168V478.4a276.72 276.72 0 0 1 58.448 34.112V203.968c0-53.68-31.648-85.328-85.328-85.328h-79.2c-12.976 0-22.72 17.68-22.72 31.408 0 15.232 11.952 29.216 22.72 29.216zM706.128 512c-122.56 0-221.872 99.312-221.872 221.872 0 122.56 99.312 221.872 221.872 221.872 122.56 0 221.872-99.312 221.872-221.872C928 611.312 828.688 512 706.128 512z m153.728 168.896L689.504 851.248c-5.488 5.488-12.752 8.24-20.016 8.24s-14.528-2.736-20.016-8.24l-96.88-96.88a28.272 28.272 0 0 1 0-39.888 28.272 28.272 0 0 1 39.888 0l77.024 77.024 150.336-150.336a28.272 28.272 0 0 1 39.888 0 27.68 27.68 0 0 1 0.128 39.728z m-153.728-224.368H284.512c-24.144 0-40.336 21.632-40.336 45.776 0 24.144 16.192 45.776 40.336 45.776h216.32c50.784-56.064 123.888-91.552 205.296-91.552zM484.32 899.616H200.88c-32.128 0-44.24-12.112-44.24-44.256V220.256c0-32.304 15.376-40.992 47.504-40.992h57.104c10.768 0 22.72-13.632 22.72-30.304 0-13.008-8.784-30.32-21.632-30.32h-80.992C127.648 118.64 96 150.304 96 203.968V870.4c0 53.68 33.824 85.328 85.328 85.328h359.12a279.232 279.232 0 0 1-56.128-56.112zM244.16 282.528c0 24.144 16.192 45.776 40.336 45.776h399.52c23.968 0 40.336-21.632 40.336-45.776s-16.192-45.776-40.336-45.776H600.64V137.76a69.472 69.472 0 0 0-69.488-69.488h-93.792a69.472 69.472 0 0 0-69.488 69.488v99.008h-83.376c-24.128 0-40.336 21.616-40.336 45.76zM484.272 111.696a46.112 46.112 0 0 1 46.032 46.032 46.112 46.112 0 0 1-46.032 46.032 46.112 46.112 0 0 1-46.032-46.032 46.112 46.112 0 0 1 46.032-46.032zM284.512 646.336c-24.144 0-40.336 21.632-40.336 45.776 0 24.144 15.12 45.776 39.248 45.776h145.584c-0.016-1.344-0.208-2.656-0.208-4.016 0-30.608 5.184-59.984 14.384-87.536h-158.672z" /></svg>